<svg 
 xmlns="http://www.w3.org/2000/svg"
 xmlns:xlink="http://www.w3.org/1999/xlink"
 width="50px" height="50px" viewBox="0 0 50 50">
<path fill-rule="evenodd"  fill="rgb(58, 84, 214)"
 d="M48.959,26.042 L46.147,26.042 C45.521,26.042 45.104,25.625 45.104,24.999 C45.104,24.374 45.521,23.957 46.147,23.957 L48.959,23.957 C49.583,23.957 50.002,24.374 50.002,24.999 C50.002,25.625 49.585,26.042 48.959,26.042 ZM47.708,17.080 L45.104,18.123 C44.895,18.227 44.791,18.227 44.687,18.227 C44.272,18.227 43.855,17.916 43.751,17.496 C43.543,16.977 43.855,16.352 44.377,16.143 L46.981,15.101 C47.500,14.892 48.125,15.205 48.334,15.726 C48.543,16.245 48.230,16.871 47.708,17.080 ZM44.791,32.290 L47.396,33.436 C47.917,33.749 48.230,34.271 47.919,34.790 C47.815,35.207 47.398,35.415 46.981,35.415 C46.876,35.415 46.668,35.415 46.564,35.312 L43.959,34.164 C43.438,33.958 43.229,33.332 43.438,32.811 C43.644,32.290 44.270,32.081 44.791,32.290 ZM41.980,43.021 C41.772,43.021 41.459,42.916 41.251,42.708 L39.272,40.729 C38.855,40.313 38.855,39.688 39.272,39.271 C39.687,38.854 40.312,38.854 40.729,39.271 L42.711,41.249 C43.127,41.665 43.127,42.291 42.711,42.708 C42.502,42.916 42.293,43.021 41.980,43.021 ZM40.729,10.726 C40.521,10.935 40.312,11.038 39.999,11.038 C39.689,11.038 39.480,10.935 39.272,10.726 C38.855,10.311 38.855,9.685 39.272,9.268 L41.251,7.290 C41.666,6.873 42.291,6.874 42.709,7.290 C43.125,7.704 43.125,8.330 42.709,8.747 L40.729,10.726 ZM34.271,5.934 C34.167,6.351 33.750,6.559 33.333,6.559 C33.228,6.559 33.020,6.559 32.916,6.455 C32.396,6.247 32.188,5.623 32.396,5.102 L33.543,2.497 C33.750,1.976 34.375,1.767 34.896,1.976 C35.418,2.183 35.626,2.808 35.418,3.329 L34.271,5.934 ZM41.876,19.373 C41.980,19.791 41.876,20.208 41.459,20.520 L32.293,27.187 L35.622,38.020 C35.727,38.437 35.519,38.854 35.205,39.167 C34.997,39.271 34.788,39.376 34.580,39.376 C34.371,39.376 34.163,39.271 33.954,39.167 L24.787,32.500 L15.620,39.167 C15.206,39.479 14.788,39.479 14.371,39.167 C13.954,38.958 13.850,38.437 13.954,38.020 L17.497,27.187 L8.330,20.520 C7.913,20.312 7.809,19.791 7.913,19.373 C8.122,18.956 8.539,18.643 8.956,18.643 L20.308,18.643 L23.851,7.810 C24.059,7.394 24.372,7.081 24.893,7.081 C25.415,7.081 25.832,7.394 25.936,7.810 L29.479,18.643 L40.833,18.643 C41.355,18.643 41.772,18.956 41.876,19.373 ZM28.645,20.829 C28.123,20.829 27.707,20.516 27.603,20.099 L24.893,11.660 L22.185,20.099 C21.977,20.516 21.559,20.829 21.142,20.829 L12.288,20.829 L19.476,26.038 C19.893,26.246 19.997,26.768 19.893,27.185 L17.185,35.624 L24.372,30.415 C24.581,30.311 24.789,30.207 24.998,30.207 C25.206,30.207 25.415,30.311 25.623,30.415 L32.603,35.624 L29.894,27.185 C29.789,26.768 29.998,26.351 30.311,26.038 L37.499,20.829 L28.645,20.829 ZM25.000,4.893 C24.374,4.893 23.957,4.372 23.957,3.852 L23.957,1.040 C23.957,0.414 24.374,-0.003 25.000,-0.003 C25.625,-0.003 26.043,0.414 26.043,1.040 L26.043,3.851 C26.043,4.477 25.625,4.893 25.000,4.893 ZM17.499,6.247 C17.291,6.351 17.187,6.351 17.082,6.351 C16.665,6.351 16.353,6.142 16.144,5.728 L15.103,3.018 C14.895,2.497 15.207,1.872 15.727,1.663 C16.248,1.455 16.874,1.767 17.080,2.289 L18.123,4.893 C18.331,5.414 18.021,6.038 17.499,6.247 ZM9.998,11.038 C9.790,11.038 9.477,10.935 9.269,10.728 L7.290,8.747 C6.873,8.332 6.873,7.706 7.290,7.290 C7.705,6.873 8.330,6.873 8.747,7.290 L10.728,9.268 C11.145,9.683 11.145,10.309 10.728,10.726 C10.520,10.935 10.311,11.038 9.998,11.038 ZM5.519,17.707 C5.415,17.707 5.206,17.707 5.102,17.603 L2.500,16.456 C1.979,16.250 1.770,15.624 1.979,15.103 C2.185,14.581 2.811,14.373 3.332,14.581 L5.936,15.726 C6.455,15.935 6.769,16.560 6.458,17.081 C6.353,17.498 5.936,17.707 5.519,17.707 ZM4.894,24.999 C4.894,25.623 4.372,26.040 3.853,26.042 L1.040,26.042 C0.414,26.042 -0.003,25.625 -0.003,24.999 C-0.003,24.374 0.414,23.957 1.040,23.957 L3.851,23.957 C4.477,23.957 4.894,24.374 4.894,24.999 ZM2.393,32.917 L4.998,31.875 C5.519,31.666 6.143,31.978 6.353,32.396 C6.562,32.915 6.249,33.541 5.728,33.749 L3.123,34.792 C2.915,34.896 2.811,34.896 2.706,34.896 C2.289,34.896 1.976,34.688 1.768,34.271 C1.559,33.749 1.872,33.124 2.393,32.917 ZM9.269,39.271 C9.686,38.854 10.415,38.854 10.728,39.271 C11.145,39.687 11.145,40.311 10.728,40.729 L8.749,42.708 C8.541,42.916 8.228,43.021 8.020,43.021 C7.811,43.021 7.498,42.916 7.290,42.708 C6.873,42.293 6.873,41.667 7.290,41.249 L9.269,39.271 ZM15.729,44.064 C15.935,43.542 16.561,43.333 17.082,43.542 C17.604,43.750 17.812,44.376 17.606,44.896 L16.459,47.500 C16.354,47.916 15.937,48.126 15.520,48.126 C15.416,48.126 15.207,48.126 15.103,48.021 C14.582,47.815 14.373,47.189 14.582,46.668 L15.729,44.064 ZM25.000,45.104 C25.623,45.104 26.041,45.625 26.043,46.147 L26.043,48.960 C26.043,49.585 25.625,50.002 25.000,50.002 C24.374,50.002 23.957,49.585 23.957,48.960 L23.957,46.147 C23.957,45.521 24.374,45.104 25.000,45.104 ZM32.501,43.646 C33.020,43.437 33.645,43.750 33.854,44.272 L34.898,46.772 C35.107,47.291 34.794,47.916 34.273,48.126 C34.064,48.230 33.960,48.230 33.856,48.230 C33.439,48.230 33.127,48.021 32.918,47.604 L31.876,44.999 C31.667,44.480 31.979,43.854 32.501,43.646 Z"/>
</svg>